/* XPM */
static char *bitcoin64[] = {
/* columns rows colors chars-per-pixel */
"64 64 73 1 ",
"  c #656565",
". c #6B6B6B",
"X c #70706F",
"o c #737373",
"O c #7B7B7B",
"+ c #807F80",
"@ c #838383",
"# c #888887",
"$ c #8C8C8B",
"% c #90908F",
"& c #949393",
"* c #989897",
"= c #989798",
"- c #9C9B9B",
"; c #A4A3A3",
": c #A8A8A7",
"> c #A8A7A8",
", c #ACACAC",
"< c #B0B0AF",
"1 c #B4B4B4",
"2 c #B8B7B8",
"3 c #BCBBBB",
"4 c #F4D79F",
"5 c #C0C0BF",
"6 c #F8DEAB",
"7 c #F6DBB4",
"8 c #F9E0A1",
"9 c #C0BFC0",
"0 c #C4C4C3",
"q c #C8C8C6",
"w c #C9C7C9",
"e c #CDCCCC",
"r c #D0D0CF",
"t c #D1CFD1",
"y c #D3D3D2",
"u c #D9D9D7",
"i c #DDDCDC",
"p c #F2D5C5",
"a c #F8DEC3",
"s c #F6DCCC",
"d c #F0D4D5",
"f c #F5DBD2",
"g c #F2D6DB",
"h c #F5DADB",
"j c #F8E0C4",
"k c #E0E0DE",
"l c #F8E1D5",
"z c #F8E2D8",
"x c #E0DFE0",
"c c #F1D6E3",
"v c #F6DEE7",
"b c #F8DFE2",
"n c #F2D6EB",
"m c #F5DBEC",
"M c #F7DFF1",
"N c #F8DDF2",
"B c #E5E4E4",
"V c #E9E9E7",
"C c #E9E7E9",
"Z c #ECECEA",
"A c #F7E2E6",
"S c #F7E0EB",
"D c #F9E3ED",
"F c #F7E2F2",
"G c #FBE5F5",
"H c #F0EFF0",
"J c #FBEAF6",
"K c #FDE7F8",
"L c #FDECF9",
"P c #F4F2F4",
"I c #FDF4FB",
"U c #FDFBFD",
"Y c None",
/* pixels */
"YYYYYYYYYYYYYYYYYYYYYYYYYYYYYYYYYYYYYYYYYYYYYYYYYYYYYYYYYYYYYYYY",
"YYYYYYYYYYYYYYYYYYYYYYYYYYYYYZZZZZZYYYYYYYYYYYYYYYYYYYYYYYYYYYYY",
"YYYYYYYYYYYYYYYYYYYYYYYYZZZZZZZZZZZZZZZZYYYYYYYYYYYYYYYYYYYYYYYY",
"YYYYYYYYYYYYYYYYYYYYYZZZZZZZZZZZZZZZZZZZZZZYYYYYYYYYYYYYYYYYYYYY",
"YYYYYYYYYYYYYYYYYYYZZZZZZZZZZHZZZHZZZZZZZZZZZYYYYYYYYYYYYYYYYYYY",
"YYYYYYYYYYYYYYYYYZZZZZZZZVir51,;:,15rkZZZZZZZZZYYYYYYYYYYYYYYYYY",
"YYYYYYYYYYYYYYYZZZZZZZBe,%oX        XO&<yVHZZZZZZYYYYYYYYYYYYYYY",
"YYYYYYYYYYYYYYZZZZZZk1#X                o%3kHZZZZZYYYYYYYYYYYYYY",
"YYYYYYYYYYYYYZZZZZx<+      .$;o  @;@      .@3BZZZZZYYYYYYYYYYYYY",
"YYYYYYYYYYYZZZZZZ0@       @ePU0.XyUH9O       %eZZZZZYYYYYYYYYYYY",
"YYYYYYYYYYZZZZZk;X   .   *ZUUUP:2UUUUx$       o<BZZZZYYYYYYYYYYY",
"YYYYYYYYYYZZZZu$        &HUUUUUPUUUUUUB@        *kZZZZYYYYYYYYYY",
"YYYYYYYYYZZZZr@   .    OBUUUUUUUUUUUUUUyo     .  $uZZZZYYYYYYYYY",
"YYYYYYYYZZZHrO         1UUUUUUUUUUUUUUUU-         #iZZZZYYYYYYYY",
"YYYYYYYZZZZy+         OBUUUUUUUUUUUUUUUUu.  .      $kZZZZYYYYYYY",
"YYYYYYYZZZk$          &IUUUUUUIUIUIUUUUUH@          -VZZZYYYYYYY",
"YYYYYYZZZZ;           ,UUUUUIUUIIUUIUUUUU-          .1ZZZZYYYYYY",
"YYYYYZZZZ5.      .XX  2UUUUUIIIIIIIUIUUUU-  XX.      oyZZZYYYYYY",
"YYYYYZZZk#    #,eixiw;wUUUUIUUIIIIIIUUUUU2,eixiw;O    &BZZZYYYYY",
"YYYYZZZZ<   O3HUUUUUUUPUUUIULILIIIIIIIUUUPUUUUUUUZ1o  .0ZZZYYYYY",
"YYYYZZZi@  #iUUUUUUUUUUUUIIIIIILIILIIIUUUUUUUUUUUUUyO  $VZZZYYYY",
"YYYYZZZ2  +xUUUUUUUUUUUUUUIIIILILIIIIIIUUUUUUUUUUUUUyo .qZZZYYYY",
"YYYZZZV$  5UUUUUUUUUUIUUUIULLLLLLLLIIIUIIUUUUUUUUUUUU,  -ZZZZYYY",
"YYYZZZeX  -PUUUUUUUIUUIIIIIIILLLLLLLIIIUIIIUUIUUUUUUZ#  oiZZZYYY",
"YYYZZZ,    2UUUUUIIUIIIIIILILLLLLLLLILLIIIIIIUUUUUUP-   .5ZZZYYY",
"YYZZZV%   X;IUUUIUIIIIILLILLLLLKLLLLLILIIIIIIIIUUUUP=X   ;ZZZYYY",
"YYZZZkO o2iPUUUUUIUIILIIILLLJJKKKLJJLLLLILLIIIIUUUUUPi,. #VZZZYY",
"YYZZZr. $PUUUUIUIIIIIILLLLLLJDDKGGFJLLLILLIIIIUIUUUUUUHO okZZZYY",
"YYZZZ5  @PUUUUUUUIIIILILLLLKJz8bFSDDKLLLILIIIIIUUUUUUUZo XyZZZYY",
"YYZZH1  oBUUUUUUUIIILILLLLLKGvfmm7aKKLKLLLLIIIIIUUUUUUy. .qZZZYY",
"YYZZZ<  .qUUUUUUIUIIIILLLKKKGmnnnshKKLLLLIIIIIIUUUUUUU<   5HZZYY",
"YYZZZ:   &PUUUUUUIIIILLLLKKDshcpgnmFGKKLLLLIIIIUUUUUUH@   3ZZZYY",
"YYZZZ:   .eUUUUUIUUIILILLLGD6fg4dn7sFGJLLIIIIIUUUUUUU2    3ZZZYY",
"YYZZH<    OkUUUUUUIIIIILLJGDvmncnnalGGJLLIIIIIUUUUUUyo   .0ZZZYY",
"YYZZZ1     @xUUUUUUIUIILIJLKKGMsgNGKJLLLIIIUIUUUUUUyO    .wHZZYY",
"YYZZZq.     O0PUUUUUUIULLLKKKKD6aGKKKLLLIIIIUUUUUZ1o   . XyZZZYY",
"YYZZZyX   .   $3VUUUIILILLKLKKKSDKKKLLLLIIIIUUUx1#       OkZZZYY",
"YYZZZkO        ouUUUUIILILLLLKLJJKLLLLLLIIIIUUUw.        $VZZZYY",
"YYYZZZ& .      1UUUUIIILLLLLLLLLJLLLLLLIIIIIUUUU-        :ZZZYYY",
"YYYZZZ2       +HUUUUUUIIILLLLLLLLLLLLLILIIIIUUUUxX   .  .0ZZZYYY",
"YYYZZZyo      :UUUUUIIIILILLLILLLLLLILIIIIIUUUUUI&      OkZZZYYY",
"YYYZZZV%      eUUUUUUIIIILILILIIIIIILLLIIIIIUUUUU2      ;ZZZZYYY",
"YYYYZZH3.    XiUUUUUUIIIIIIIIIIIIIILLIIIIIUIUUUUUe     XeZZZYYYY",
"YYYYZZZB@    oBUUUUUIUIIIIIIIIIIIIIUIIIIIUIUUUUUUy.    &ZZZZYYYY",
"YYYYZZZZ3.   XxUUUUUIIUIIIIIUIUUUIIIIUIUIUIUUUUUUr    XeZZZYYYYY",
"YYYYYZZZB%   .tUUUUUUUIUUUUIIIUUUUUIUIUIIUUUUUUUU3    -ZZZZYYYYY",
"YYYYYZZZZeo   ,UUUUUUUUUUPIUUUUUUUUUUIUIUUIUUUUUI-   OuZZZYYYYYY",
"YYYYYYZZZZ<   @ZUUUUUUUUUUUUUUUUUUUUUUIUUIUUUUUUxo  X5ZZZZYYYYYY",
"YYYYYYYZZZV*   2UUHZUUUUUUUUUUU9tUUUUUUUUUUUCHUU-   :ZZZZYYYYYYY",
"YYYYYYYZZZZi$  o2;O-IUUUUUUUUUyo+xUUUUUUUUUP$+:,X  -BZZZZYYYYYYY",
"YYYYYYYYZZZZu#     %PUUUUUUUUeO  @iUUUUUUUUP@     *kZZZZYYYYYYYY",
"YYYYYYYYYZZZZu$    %UUUUUUUZ<X    o3HUUUUUUH+    -BZZZZYYYYYYYYY",
"YYYYYYYYYYZZZZk-.  X,tBBxe:O        +,txBxe-X  .:VZZZZYYYYYYYYYY",
"YYYYYYYYYYYZZZZV1o    XoX             .XoX.   O5ZZZZZYYYYYYYYYYY",
"YYYYYYYYYYYYZZZZZr&.             .          X-uZZZZZYYYYYYYYYYYY",
"YYYYYYYYYYYYYZZZZHV3$.         .          X&qZZZZZZYYYYYYYYYYYYY",
"YYYYYYYYYYYYYYZZZZZZBq-o                O;eVZZZZZZYYYYYYYYYYYYYY",
"YYYYYYYYYYYYYYYZZZZZZZZu5;#oX.    .XO#;5iZZZZZZZYYYYYYYYYYYYYYYY",
"YYYYYYYYYYYYYYYYYZZZZZZZZZVir05335qyiVZHZZZZZZZYYYYYYYYYYYYYYYYY",
"YYYYYYYYYYYYYYYYYYYZZZZZZZZZZZZZHZZZZZZZZZZZZYYYYYYYYYYYYYYYYYYY",
"YYYYYYYYYYYYYYYYYYYYYZZZZZZZZZZZZZZZZZZZZZZYYYYYYYYYYYYYYYYYYYYY",
"YYYYYYYYYYYYYYYYYYYYYYYYZZZZZZZZZZZZZZZZYYYYYYYYYYYYYYYYYYYYYYYY",
"YYYYYYYYYYYYYYYYYYYYYYYYYYYYYYYZZYYYYYYYYYYYYYYYYYYYYYYYYYYYYYYY",
"YYYYYYYYYYYYYYYYYYYYYYYYYYYYYYYYYYYYYYYYYYYYYYYYYYYYYYYYYYYYYYYY"
};
