/* XPM */
static char *bitcoin32[] = {
/* columns rows colors chars-per-pixel */
"32 32 232 2 ",
"   c gray38",
".  c gray39",
"X  c #636463",
"o  c #646464",
"O  c #646465",
"+  c #656565",
"@  c #666566",
"#  c gray40",
"$  c #676767",
"%  c #686868",
"&  c DimGray",
"*  c #6B6B6A",
"=  c gray42",
"-  c #6C6C6C",
";  c #6D6D6D",
":  c gray43",
">  c #6F6E6F",
",  c #6F6F6F",
"<  c gray44",
"1  c #717170",
"2  c #717171",
"3  c #727272",
"4  c #737372",
"5  c gray45",
"6  c #747474",
"7  c gray46",
"8  c #767675",
"9  c #767676",
"0  c gray47",
"q  c #797979",
"w  c gray48",
"e  c #7B7B7A",
"r  c #7C7C7B",
"t  c #7C7C7C",
"y  c #7F7F7E",
"u  c #7F7E7F",
"i  c #808080",
"p  c #838383",
"a  c #858584",
"s  c gray52",
"d  c #868686",
"f  c #878687",
"g  c #888887",
"h  c #888788",
"j  c #898988",
"k  c #8A8A89",
"l  c gray54",
"z  c #8B8B8A",
"x  c #8D8C8D",
"c  c #8E8D8E",
"v  c #8F8E8F",
"b  c #908F90",
"n  c #909090",
"m  c #919190",
"M  c #919091",
"N  c #939392",
"B  c #939393",
"V  c gray58",
"C  c #989798",
"Z  c #9B9A9B",
"A  c #9D9C9D",
"S  c #A1A1A0",
"D  c #A2A2A1",
"F  c #A2A1A2",
"G  c #A3A2A3",
"H  c #A5A4A5",
"J  c #A6A6A5",
"K  c #A7A7A6",
"L  c gray66",
"P  c #AAAAA9",
"I  c #ABABAA",
"U  c #ABAAAB",
"Y  c gray68",
"T  c #AEAEAD",
"R  c #AFAFAE",
"E  c #B0B0AF",
"W  c #B4B4B3",
"Q  c #B4B3B4",
"!  c #B5B5B4",
"~  c #B7B7B6",
"^  c #B7B6B7",
"/  c #B8B8B7",
"(  c #B8B7B8",
")  c #BAB9BA",
"_  c #BBB9BB",
"`  c #BDBCBD",
"'  c #BEBEBD",
"]  c #BEBDBE",
"[  c #BFBDBF",
"{  c #BFBEBF",
"}  c #C0BFC0",
"|  c #C1C0C1",
" . c #C2C0C2",
".. c #C2C1C2",
"X. c #C3C2C3",
"o. c #C5C5C3",
"O. c #C4C3C4",
"+. c #C5C5C4",
"@. c #C6C6C4",
"#. c #C6C6C5",
"$. c #C7C7C5",
"%. c #C7C7C6",
"&. c #C7C6C7",
"*. c #C8C7C8",
"=. c #C9C7C9",
"-. c #CAC9CA",
";. c #CBC9CB",
":. c #CBCBCA",
">. c #CCCCCA",
",. c #CDCDCB",
"<. c #CDCDCC",
"1. c #CECECC",
"2. c #CFCFCD",
"3. c #CFCFCE",
"4. c #D2D2D1",
"5. c #D2D0D2",
"6. c #D4D4D2",
"7. c #D4D4D3",
"8. c #D5D5D3",
"9. c #D4D3D4",
"0. c #D5D3D5",
"q. c #D5D4D5",
"w. c #D6D6D4",
"e. c #D7D7D5",
"r. c #D7D7D6",
"t. c #D9D9D8",
"y. c #D9D8D9",
"u. c #DADAD8",
"i. c #DBDBD9",
"p. c #DCDCDB",
"a. c #DDDDDB",
"s. c #DEDEDC",
"d. c #DFDFDD",
"f. c #DEDDDE",
"g. c #DFDDDF",
"h. c #F2D7D5",
"j. c #F7DED3",
"k. c #F2D7DB",
"l. c #F2D6DD",
"z. c #F2D7DE",
"x. c #F7DDD8",
"c. c #F6DDDA",
"v. c #F7DEDB",
"b. c #F7DEDF",
"n. c #E0E0DE",
"m. c #E1E1DF",
"M. c #E0DFE0",
"N. c #F7DDE1",
"B. c #F7DEE5",
"V. c #F8DEE2",
"C. c #E2E2E0",
"Z. c #E2E2E1",
"A. c #E2E0E2",
"S. c #E4E2E4",
"D. c #E4E3E4",
"F. c #E6E6E5",
"G. c #E7E7E5",
"H. c #E6E4E6",
"J. c #E6E5E6",
"K. c #E8E8E6",
"L. c #E9E9E7",
"P. c #E8E6E8",
"I. c #E9E7E9",
"U. c #EAEAE8",
"Y. c #EBEBE9",
"T. c #EAE8EA",
"R. c #EBEAEB",
"E. c #ECECEA",
"W. c #EDEDEA",
"Q. c #EDEDEB",
"!. c #EEEEEB",
"~. c #ECEBEC",
"^. c #EDEBED",
"/. c #EEEEEC",
"(. c #EEECEE",
"). c #EFEDEF",
"_. c #EFEEEF",
"`. c #FAE3E7",
"'. c #F9E3E9",
"]. c #F9E5EE",
"[. c #FBE6F0",
"{. c #FAE6F2",
"}. c #FBE7F2",
"|. c #FCE7F0",
" X c #FCE7F3",
".X c #FCE5F5",
"XX c #FCE7F7",
"oX c #F0EFF0",
"OX c #F1EFF1",
"+X c #FBE8F3",
"@X c #FBE8F6",
"#X c #FCE5F8",
"$X c #FCE9F8",
"%X c #FDE9F9",
"&X c #FCEBF9",
"*X c #FDEBF9",
"=X c #FCECF8",
"-X c #FDECF9",
";X c #FDEDF9",
":X c #FDEEF9",
">X c #FDEDFA",
",X c #FDEEFA",
"<X c #FDEFFA",
"1X c #F3F1F3",
"2X c #F5F3F5",
"3X c #F5F4F5",
"4X c #F7F5F7",
"5X c #F7F6F7",
"6X c #FDF0FA",
"7X c #FDF1FA",
"8X c #FDF1FB",
"9X c #FDF2FB",
"0X c #FDF3FB",
"qX c #F8F6F8",
"wX c #FDF4FB",
"eX c #FDF5FB",
"rX c #FDF6FC",
"tX c #FDF7FC",
"yX c #FAF8FA",
"uX c #FDF8FC",
"iX c #FDF9FC",
"pX c #FDF9FD",
"aX c #FCFAFC",
"sX c #FDFAFD",
"dX c #FDFBFD",
"fX c #FEFBFD",
"gX c #FEFBFE",
"hX c #FEFCFE",
"jX c #FFFDFF",
"kX c #FFFEFF",
"lX c gray100",
"zX c None",
/* pixels */
"zXzXzXzXzXzXzXzXzXzXzXzXzXzXzXzXzXzXzXzXzXzXzXzXzXzXzXzXzXzXzXzX",
"zXzXzXzXzXzXzXzXzXzXzXE.E.E././././.E.E.E.zXzXzXzXzXzXzXzXzXzXzX",
"zXzXzXzXzXzXzXzXzXE.E.E.G.u.,.o.%.1.i.G.!.E.E.zXzXzXzXzXzXzXzXzX",
"zXzXzXzXzXzXzXE.E.W.7.P j 4 : % % : 6 j R e.E.E.E.zXzXzXzXzXzXzX",
"zXzXzXzXzXzXE.E.i.D 4 + O x } f x } h O O 6 J s.oXE.zXzXzXzXzXzX",
"zXzXzXzXzXE.E.%.i O + $ G 1XjXM.F.jX/.Z O O O a ,.E.E.zXzXzXzXzX",
"zXzXzXzXY.E.' 5 + O O s oXjXsXjXjXsXjXY.i O $ O 6 o.E.E.zXzXzXzX",
"zXzXzXE.E.%.5 O O O O ~ jXjXsXtXsXsXsXjXY O O O + 8 ,.oXzXzXzXzX",
"zXzXzX/.u.y X O 5 5 : 5.jXsXtXtXtXtXsXjX%.: 6 : O + s n.E.zXzXzX",
"zXzXE.Y.D O h ..M.S.9.^.sXtX0X0X0XtXsXsXI.q.S.g.' a O I E.E.zXzX",
"zXzX/.7.5 C /.jXjXjXjXsXsXtX0X0X-X0XtXtXsXjXsXjXjXY.v q i.E.zXzX",
"zXzXE.I % =.jXsXsXsXuXtXrX0X-X-X-X-X0XrXrXsXsXsXsXjX` O ! oXzXzX",
"zXE.G.j O A 4XsXtXtX0X0X-X0X-X-X-X-X0X0XtX0XrXtXsX2XV O m Y.E.zX",
"zX/.u.6 H /.sXsXtX0X0X0X-X*X}. XXX@X-X-X-X0XtXtXsXsXY.A q n.E.zX",
"zX/.1.* Q jXsXsXtX0X0X-X-X*X'.x.b.`.*X*X-X0X0XtXsXsXjXI : 7.oXzX",
"zX/.$.$ b qXjXsXtX0X0X-X*X XN.l.k.B.XX*X-X0X0XsXsXjX1Xf * 2./.zX",
"zX/.$.% % O.jXjXsXrX0X0X*X].x.h.l.j.}.XX0X0XrXsXsXjX) $ : 2.E.zX",
"zX/.2.: O 5 } 4XsXrXrX8X-X*X#Xv.V.XX*X-X0XrXrXsX1X) 5 O 5 7./.zX",
"zXE.i.0 O $ % V ^.sXrX8X-X*X*X].}.*X*X-X0XrXsXK.x % O O y n.E.zX",
"zXE.G.z O $ O D aXsXrX8X0X-X-X-X*X-X-X0X0XrXsX5XC O O O N E.E.zX",
"zXzX/.E O $ * q.jXsXrX8X0X-X0X-X-X0X-X0X0XrXsXjX:.$ $ $ / /.zXzX",
"zXzXE.r.6 + 4 F.sXsXrXrX0X0X0XtX0X0X0X0XtXrXaXjXg., + r i.E.zXzX",
"zXzXE.E.J X < Z.jXjXsXrXrXrXrXsXsXtXtXrXtXuXjXjXu.- O E /.E.zXzX",
"zXzXzXE.g.p O ..jXjXsXsXsXsXsXsXaXsXsXrXsXsXjXjX~ . z D.E.zXzXzX",
"zXzXzXE./.,.6 p ;...aXsXsXjXsX} &.sXjXsXsX4X} ;.t q 6.E.zXzXzXzX",
"zXzXzXzXE./.%.6 O y /.jXjXoX~ < 5 ' 1XsXjXE.q O q ;.E.E.zXzXzXzX",
"zXzXzXzXzXE.E.1.s : V I D p O O O % s H I N % z 4./.E.zXzXzXzXzX",
"zXzXzXzXzXzXE./.n.I 6 X . . O $ $ O . . . 0 E Z.E.E.zXzXzXzXzXzX",
"zXzXzXzXzXzXzXE./.E.i.~ m q < : : 5 e N / i./.E.E.zXzXzXzXzXzXzX",
"zXzXzXzXzXzXzXzXzXE.E./.G.d.7.2.,.7.n.G././.E.zXzXzXzXzXzXzXzXzX",
"zXzXzXzXzXzXzXzXzXzXzXE.E.E././././.E.E.E.zXzXzXzXzXzXzXzXzXzXzX",
"zXzXzXzXzXzXzXzXzXzXzXzXzXzXzXzXzXzXzXzXzXzXzXzXzXzXzXzXzXzXzXzX"
};
