<?xml version="1.0" encoding="UTF-8" standalone="no"?>
<!-- Created with Inkscape (http://www.inkscape.org/) -->

<svg
   xmlns:dc="http://purl.org/dc/elements/1.1/"
   xmlns:cc="http://creativecommons.org/ns#"
   xmlns:rdf="http://www.w3.org/1999/02/22-rdf-syntax-ns#"
   xmlns:svg="http://www.w3.org/2000/svg"
   xmlns="http://www.w3.org/2000/svg"
   xmlns:xlink="http://www.w3.org/1999/xlink"
   xmlns:sodipodi="http://sodipodi.sourceforge.net/DTD/sodipodi-0.dtd"
   xmlns:inkscape="http://www.inkscape.org/namespaces/inkscape"
   width="210mm"
   height="297mm"
   id="svg2"
   version="1.1"
   inkscape:version="0.48.4 r9939"
   sodipodi:docname="sakuracoin.svg">
  <defs
     id="defs4">
    <linearGradient
       id="linearGradient3890">
      <stop
         style="stop-color:#edd1e7;stop-opacity:1;"
         offset="0"
         id="stop3892" />
      <stop
         style="stop-color:#f3e4e7;stop-opacity:0;"
         offset="1"
         id="stop3894" />
    </linearGradient>
    <linearGradient
       id="linearGradient3771">
      <stop
         style="stop-color:#ffa5e7;stop-opacity:1;"
         offset="0"
         id="stop3773" />
      <stop
         id="stop3781"
         offset="0.5"
         style="stop-color:#fde7f8;stop-opacity:1;" />
      <stop
         style="stop-color:#fdfbfd;stop-opacity:1;"
         offset="1"
         id="stop3775" />
    </linearGradient>
    <radialGradient
       inkscape:collect="always"
       xlink:href="#linearGradient3771"
       id="radialGradient4247"
       gradientUnits="userSpaceOnUse"
       gradientTransform="matrix(1.5673411,0,0,3.8467695,-284.78559,-1816.8277)"
       cx="571.76111"
       cy="708.54089"
       fx="571.76111"
       fy="708.54089"
       r="142.91381" />
    <radialGradient
       inkscape:collect="always"
       xlink:href="#linearGradient3771"
       id="radialGradient4249"
       gradientUnits="userSpaceOnUse"
       gradientTransform="matrix(0.48433503,-1.49063,3.6584952,1.1887171,-2079.2419,789.09556)"
       cx="571.76111"
       cy="708.54089"
       fx="571.76111"
       fy="708.54089"
       r="142.91381" />
    <radialGradient
       inkscape:collect="always"
       xlink:href="#linearGradient3771"
       id="radialGradient4251"
       gradientUnits="userSpaceOnUse"
       gradientTransform="matrix(-1.2680056,-0.92125997,2.2610744,-3.1121019,-155.37908,3300.9995)"
       cx="571.76111"
       cy="708.54089"
       fx="571.76111"
       fy="708.54089"
       r="142.91381" />
    <radialGradient
       inkscape:collect="always"
       xlink:href="#linearGradient3771"
       id="radialGradient4253"
       gradientUnits="userSpaceOnUse"
       gradientTransform="matrix(-1.2680056,0.92126001,-2.2610744,-3.1121019,2828.0898,2247.5182)"
       cx="571.76111"
       cy="708.54089"
       fx="571.76111"
       fy="708.54089"
       r="142.91381" />
    <radialGradient
       inkscape:collect="always"
       xlink:href="#linearGradient3771"
       id="radialGradient4255"
       gradientUnits="userSpaceOnUse"
       gradientTransform="matrix(0.48433507,1.49063,-3.6584952,1.1887172,2748.1122,-915.47297)"
       cx="571.76111"
       cy="708.54089"
       fx="571.76111"
       fy="708.54089"
       r="142.91381" />
    <radialGradient
       inkscape:collect="always"
       xlink:href="#linearGradient3890"
       id="radialGradient4257"
       gradientUnits="userSpaceOnUse"
       gradientTransform="matrix(1,0,0,0.95105652,0,11.029639)"
       cx="-1004"
       cy="225.35464"
       fx="-1004"
       fy="225.35464"
       r="129.39962" />
    <radialGradient
       inkscape:collect="always"
       xlink:href="#linearGradient3771"
       id="radialGradient4291"
       gradientUnits="userSpaceOnUse"
       gradientTransform="matrix(1.5673411,0,0,3.8467695,-284.78559,-1816.8277)"
       cx="571.76111"
       cy="708.54089"
       fx="571.76111"
       fy="708.54089"
       r="142.91381" />
    <radialGradient
       inkscape:collect="always"
       xlink:href="#linearGradient3771"
       id="radialGradient4293"
       gradientUnits="userSpaceOnUse"
       gradientTransform="matrix(0.48433503,-1.49063,3.6584952,1.1887171,-2079.2419,789.09556)"
       cx="571.76111"
       cy="708.54089"
       fx="571.76111"
       fy="708.54089"
       r="142.91381" />
    <radialGradient
       inkscape:collect="always"
       xlink:href="#linearGradient3771"
       id="radialGradient4295"
       gradientUnits="userSpaceOnUse"
       gradientTransform="matrix(-1.2680056,-0.92125997,2.2610744,-3.1121019,-155.37908,3300.9995)"
       cx="571.76111"
       cy="708.54089"
       fx="571.76111"
       fy="708.54089"
       r="142.91381" />
    <radialGradient
       inkscape:collect="always"
       xlink:href="#linearGradient3771"
       id="radialGradient4297"
       gradientUnits="userSpaceOnUse"
       gradientTransform="matrix(-1.2680056,0.92126001,-2.2610744,-3.1121019,2828.0898,2247.5182)"
       cx="571.76111"
       cy="708.54089"
       fx="571.76111"
       fy="708.54089"
       r="142.91381" />
    <radialGradient
       inkscape:collect="always"
       xlink:href="#linearGradient3771"
       id="radialGradient4299"
       gradientUnits="userSpaceOnUse"
       gradientTransform="matrix(0.48433507,1.49063,-3.6584952,1.1887172,2748.1122,-915.47297)"
       cx="571.76111"
       cy="708.54089"
       fx="571.76111"
       fy="708.54089"
       r="142.91381" />
    <radialGradient
       inkscape:collect="always"
       xlink:href="#linearGradient3890"
       id="radialGradient4301"
       gradientUnits="userSpaceOnUse"
       gradientTransform="matrix(1,0,0,0.95105652,0,11.029639)"
       cx="-1004"
       cy="225.35464"
       fx="-1004"
       fy="225.35464"
       r="129.39962" />
  </defs>
  <sodipodi:namedview
     id="base"
     pagecolor="#ffffff"
     bordercolor="#666666"
     borderopacity="1.0"
     inkscape:pageopacity="0.0"
     inkscape:pageshadow="2"
     inkscape:zoom="1"
     inkscape:cx="362.40287"
     inkscape:cy="527.42159"
     inkscape:document-units="px"
     inkscape:current-layer="layer1"
     showgrid="false"
     inkscape:window-width="1280"
     inkscape:window-height="1005"
     inkscape:window-x="1676"
     inkscape:window-y="-4"
     inkscape:window-maximized="1">
    <inkscape:grid
       type="xygrid"
       id="grid2988" />
  </sodipodi:namedview>
  <metadata
     id="metadata7">
    <rdf:RDF>
      <cc:Work
         rdf:about="">
        <dc:format>image/svg+xml</dc:format>
        <dc:type
           rdf:resource="http://purl.org/dc/dcmitype/StillImage" />
        <dc:title></dc:title>
      </cc:Work>
    </rdf:RDF>
  </metadata>
  <g
     inkscape:label="レイヤー 1"
     inkscape:groupmode="layer"
     id="layer1">
    <g
       id="g4397">
      <path
         transform="matrix(0.30073881,0,0,0.30624685,314.81625,244.5527)"
         d="m 772,1024.3622 a 616,616 0 1 1 -1232,0 616,616 0 1 1 1232,0 z"
         sodipodi:ry="616"
         sodipodi:rx="616"
         sodipodi:cy="1024.3622"
         sodipodi:cx="156"
         id="path4245"
         style="fill:#ececea;fill-opacity:1;fill-rule:evenodd;stroke:none"
         sodipodi:type="arc" />
      <g
         transform="matrix(0.32028533,0,0,0.32028533,184.62733,270.23593)"
         id="g4226">
        <path
           transform="matrix(0.89303482,0,0,0.89552239,388.77504,-152.05478)"
           d="m 752.36162,1173.9845 c 0,313.9815 -254.53232,568.5139 -568.51386,568.5139 -313.98153,0 -568.51385,-254.5324 -568.51385,-568.5139 0,-313.98154 254.53232,-568.51386 568.51385,-568.51386 313.98154,0 568.51386,254.53232 568.51386,568.51386 z"
           sodipodi:ry="568.51385"
           sodipodi:rx="568.51385"
           sodipodi:cy="1173.9845"
           sodipodi:cx="183.84776"
           id="path4176"
           style="fill:#666666;fill-opacity:1;fill-rule:evenodd;stroke:none"
           sodipodi:type="arc" />
        <g
           id="g4003"
           transform="translate(-58.409864,178.63199)">
          <g
             id="g3898">
            <g
               id="g3878"
               style="stroke:none">
              <g
                 style="stroke:none"
                 id="g3872">
                <path
                   style="fill:url(#radialGradient4291);fill-opacity:1;fill-rule:evenodd;stroke:none"
                   d="m 611.379,316.61764 c -16.06481,0.069 -31.41644,-51.03723 -45.50631,-47.08174 -7.00055,1.96528 -13.70247,4.25675 -20.12296,6.82005 -6.42049,2.5633 -12.55551,5.40724 -18.41015,8.50388 -5.85464,3.09664 -11.4289,6.44599 -16.72785,10.02012 -5.29895,3.57412 -10.3226,7.37302 -15.07603,11.36877 -4.75342,3.99574 -9.23663,8.18833 -13.4547,12.54983 -4.21807,4.3615 -8.171,8.89191 -11.86387,13.5633 -3.69287,4.67139 -7.12569,9.48376 -10.30354,14.40919 -3.17785,4.92542 -6.10072,9.96389 -8.77369,15.08748 -2.67298,5.12359 -5.09607,10.33229 -7.27435,15.59819 -2.17827,5.26589 -4.11174,10.58897 -5.80548,15.9413 -1.69375,5.35234 -3.14777,10.73393 -4.36713,16.11684 -1.21938,5.38291 -2.20411,10.76715 -2.95927,16.12477 -0.75516,5.35763 -1.28076,10.68865 -1.58189,15.96513 -0.30112,5.27648 -0.37776,10.49842 -0.235,15.63789 2.3793,85.65951 130.92995,218.56935 182.46222,263.46875 51.53228,-44.8994 180.04301,-177.80924 182.42232,-263.46875 0.14275,-5.13947 0.0663,-10.36141 -0.23456,-15.63789 -0.30083,-5.27648 -0.826,-10.6075 -1.58062,-15.96513 -0.75461,-5.35762 -1.73868,-10.74186 -2.95729,-16.12477 -1.21861,-5.38291 -2.67177,-10.7645 -4.36459,-16.11684 -1.6928,-5.35233 -3.62526,-10.67541 -5.80247,-15.9413 -2.17719,-5.2659 -4.59916,-10.4746 -7.27096,-15.59819 -2.67181,-5.12359 -5.59348,-10.16206 -8.77009,-15.08748 -3.17662,-4.92543 -6.6082,-9.7378 -10.29981,-14.40919 -3.69163,-4.67139 -7.64332,-9.2018 -11.86016,-13.5633 -4.21684,-4.3615 -8.69884,-8.55409 -13.45109,-12.54983 -4.75227,-3.99575 -9.77478,-7.79465 -15.07267,-11.36877 -5.29787,-3.57413 -10.87111,-6.92348 -16.72481,-10.02012 -5.85371,-3.09664 -11.98788,-5.94058 -18.40761,-8.50388 -6.41973,-2.5633 -13.11626,-4.86514 -20.121,-6.82005 -15.1267,-4.22162 -30.67597,47.01802 -45.50459,47.08174 z"
                   id="path2993"
                   inkscape:connector-curvature="0"
                   sodipodi:nodetypes="sssssssssssssssscssssssssssssssss"
                   inkscape:transform-center-y="-226.0625" />
                <path
                   inkscape:transform-center-y="-226.0625"
                   sodipodi:nodetypes="sssssssssssssssscssssssssssssssss"
                   inkscape:connector-curvature="0"
                   id="use3845"
                   d="m 226.71529,596.06325 c -4.89868,15.29986 -58.2475,14.10743 -58.83962,28.73001 -0.2942,7.26522 -0.18589,14.34723 0.26792,21.24558 0.4538,6.89836 1.26272,13.61193 2.39862,20.13694 1.13589,6.52501 2.59877,12.86145 4.36051,19.00552 1.76172,6.14406 3.8223,12.09576 6.15359,17.8513 2.33129,5.75552 4.93329,11.31489 7.77787,16.67429 2.84458,5.3594 5.93173,10.51883 9.23333,15.4745 3.30159,4.95567 6.81763,9.70758 10.51998,14.25193 3.70234,4.54436 7.591,8.88115 11.63783,13.00657 4.04683,4.12543 8.25182,8.0395 12.58686,11.73842 4.33504,3.69891 8.80011,7.18267 13.36709,10.44747 4.56698,3.26482 9.23586,6.31068 13.97851,9.13377 4.74264,2.82311 9.55906,5.42346 14.4211,7.79726 4.86205,2.3738 9.76973,4.52105 14.69491,6.43796 4.92518,1.91691 9.86785,3.60346 14.7999,5.05587 82.20228,24.2074 248.33138,-56.98014 306.95759,-92.11556 C 584.25377,658.05029 497.561,494.75793 416.82921,466.02482 c -4.84382,-1.72394 -9.8338,-3.2649 -14.945,-4.60929 -5.11119,-1.34442 -10.34358,-2.49233 -15.67218,-3.43024 -5.32859,-0.93792 -10.7534,-1.66583 -16.24942,-2.17028 -5.49602,-0.50444 -11.06327,-0.78541 -16.67676,-0.8294 -5.61347,-0.044 -11.27319,0.14894 -16.95414,0.59234 -5.68096,0.44338 -11.38315,1.13723 -17.08161,2.09499 -5.69846,0.95777 -11.39317,2.17947 -17.05915,3.67856 -5.66599,1.49911 -11.30325,3.27563 -16.88677,5.34302 -5.58354,2.06741 -11.11335,4.42572 -16.56446,7.08839 -5.45111,2.66268 -10.82351,5.62973 -16.09221,8.91464 -5.26872,3.28492 -10.43373,6.88769 -15.47006,10.82182 -5.03633,3.9341 -9.94397,8.19957 -14.69795,12.80985 -4.75397,4.6103 -9.35428,9.56541 -13.77593,14.87883 -4.42165,5.31343 -8.68017,10.9709 -12.70399,17.0287 -8.6894,13.0818 35.2374,43.70395 30.71571,57.8265 z"
                   style="fill:url(#radialGradient4293);fill-opacity:1;fill-rule:evenodd;stroke:none" />
                <path
                   inkscape:transform-center-y="-226.0625"
                   sodipodi:nodetypes="sssssssssssssssscssssssssssssssss"
                   inkscape:connector-curvature="0"
                   id="use3847"
                   d="m 373.61622,1048.2536 c 13.03726,9.3869 -4.58249,59.7561 9.14143,64.8379 6.81873,2.5249 13.58759,4.6103 20.28854,6.3104 6.70096,1.7001 13.33592,3.0054 19.89258,3.9415 6.55666,0.936 13.03503,1.5028 19.42279,1.7259 6.38776,0.2231 12.68492,0.1026 18.87916,-0.3361 6.19424,-0.4386 12.28557,-1.1953 18.26169,-2.2445 5.97612,-1.0492 11.83701,-2.3909 17.57038,-3.9996 5.73337,-1.6086 11.33922,-3.4841 16.80525,-5.601 5.46602,-2.1168 10.79221,-4.475 15.96626,-7.0489 5.17406,-2.574 10.19598,-5.3636 15.05346,-8.3435 4.85747,-2.9798 9.55051,-6.1498 14.06679,-9.4844 4.5163,-3.3346 8.85585,-6.8337 13.00633,-10.4719 4.15049,-3.6381 8.11193,-7.4152 11.872,-11.3058 3.76007,-3.8905 7.31879,-7.8944 10.66384,-11.9862 3.34505,-4.0918 6.47643,-8.2714 9.38184,-12.5132 48.4245,-70.69852 22.54728,-253.78501 7.24801,-320.3993 -68.0817,6.03447 -250.17151,38.02407 -302.44581,105.92555 -3.13639,4.07401 -6.14392,8.34359 -9.00195,12.78919 -2.85806,4.44559 -5.56669,9.06716 -8.10532,13.84513 -2.53864,4.77795 -4.90729,9.71232 -7.08541,14.78346 -2.17812,5.07115 -4.1657,10.27909 -5.94221,15.60424 -1.77652,5.32513 -3.34195,10.76746 -4.67576,16.30739 -1.33384,5.53992 -2.43602,11.17745 -3.28606,16.89296 -0.85003,5.71553 -1.44789,11.50905 -1.77305,17.36096 -0.32515,5.85193 -0.37759,11.76225 -0.13678,17.71136 0.24081,5.94912 0.77489,11.93704 1.62276,17.94417 0.84787,6.00712 2.00954,12.03345 3.50555,18.05937 1.49603,6.02595 3.32639,12.05152 5.51166,18.05702 2.18524,6.0055 4.72539,11.9911 7.64097,17.937 2.91559,5.946 6.20662,11.8524 9.89362,17.6996 3.687,5.8471 7.75162,11.6455 12.2695,17.3443 9.75635,12.3066 52.45388,-20.0075 64.48794,-11.343 z"
                   style="fill:url(#radialGradient4295);fill-opacity:1;fill-rule:evenodd;stroke:none" />
                <path
                   inkscape:transform-center-y="-226.0625"
                   sodipodi:nodetypes="sssssssssssssssscssssssssssssssss"
                   inkscape:connector-curvature="0"
                   id="use3849"
                   d="m 849.06972,1048.277 c 12.95614,-9.4984 55.41536,22.8239 64.48933,11.342 4.5084,-5.7047 8.58347,-11.4979 12.27109,-17.3455 3.68762,-5.8476 6.97932,-11.7545 9.89567,-17.701 2.91634,-5.9465 5.45731,-11.9326 7.64343,-17.9388 2.18613,-6.0062 4.01741,-12.03239 5.51437,-18.05902 1.49696,-6.02661 2.65961,-12.05365 3.50848,-18.0615 0.84886,-6.00785 1.38394,-11.9965 1.62576,-17.94635 0.24182,-5.94985 0.19039,-11.8609 -0.13377,-17.71355 -0.32415,-5.85264 -0.92104,-11.64687 -1.77013,-17.36307 -0.84909,-5.71621 -1.95036,-11.35439 -3.28332,-16.89496 -1.33295,-5.54055 -2.89757,-10.98347 -4.67332,-16.30916 -1.77576,-5.32569 -3.76265,-10.53414 -5.94016,-15.60573 -2.1775,-5.0716 -4.54561,-10.00635 -7.08381,-14.78463 -2.53819,-4.77828 -5.24647,-9.40011 -8.10429,-13.84587 -2.85782,-4.44575 -5.8652,-8.71544 -9.0016,-12.78945 -52.27429,-67.90148 -234.3964,-99.86762 -302.47809,-105.90209 -15.29928,66.6143 -41.1442,249.67733 7.2803,320.37588 2.90541,4.2418 6.03664,8.4215 9.38148,12.5134 3.34482,4.092 6.90318,8.0962 10.66282,11.987 3.75962,3.8909 7.72053,7.6684 11.8704,11.307 4.14987,3.6386 8.48872,7.1382 13.00427,10.4733 4.51552,3.3352 9.20774,6.5057 14.06435,9.4862 4.85661,2.9805 9.87762,5.7708 15.05072,8.3454 5.17311,2.5747 10.49833,4.9336 15.96335,7.0511 5.46504,2.1176 11.06988,3.9939 16.80223,5.6032 5.73237,1.6094 11.59226,2.9518 17.56738,4.0018 5.97512,1.0499 12.06548,1.8073 18.25877,2.2466 6.19331,0.4393 12.48954,0.5606 18.87644,0.3381 6.38689,-0.2225 12.86443,-0.7887 19.42033,-1.7242 6.55591,-0.9355 13.19019,-2.2403 19.89053,-3.9399 6.70034,-1.6997 13.47093,-3.7736 20.28695,-6.3093 14.71917,-5.4759 -2.81912,-56.0693 9.14004,-64.8369 z"
                   style="fill:url(#radialGradient4297);fill-opacity:1;fill-rule:evenodd;stroke:none" />
              </g>
              <path
                 style="fill:url(#radialGradient4299);fill-opacity:1;fill-rule:evenodd;stroke:none"
                 d="m 996.01519,596.10112 c -5.02992,-15.25722 38.83111,-45.65018 30.71521,-57.82813 -4.0324,-6.05061 -8.2827,-11.71641 -12.7046,-17.03056 -4.4219,-5.31414 -9.0225,-10.27007 -13.7767,-14.88125 -4.75431,-4.61118 -9.66227,-8.87761 -14.69893,-12.81274 -5.03666,-3.93514 -10.20202,-7.53899 -15.4711,-10.82502 -5.26906,-3.28601 -10.64184,-6.25422 -16.09333,-8.91806 -5.45148,-2.66385 -10.98168,-5.02334 -16.5656,-7.09192 -5.58391,-2.06859 -11.22155,-3.8463 -16.88792,-5.34657 -5.66636,-1.50027 -11.36145,-2.72312 -17.06027,-3.68199 -5.69882,-0.95887 -11.40136,-1.65379 -17.08266,-2.09821 -5.68128,-0.44441 -11.3413,-0.63832 -16.95507,-0.5952 -5.61377,0.0431 -11.18128,0.32326 -16.67754,0.82699 -5.49626,0.50371 -10.92127,1.231 -16.25003,2.16839 -5.32877,0.9374 -10.56129,2.0849 -15.67257,3.42903 -5.11128,1.34414 -10.10133,2.88492 -14.94514,4.60888 -80.73179,28.73309 -167.41222,192.06343 -194.18974,254.94821 58.62622,35.13543 224.74299,116.285 306.94527,92.07761 4.93204,-1.45242 9.87478,-3.1388 14.80004,-5.05546 4.92527,-1.91662 9.83308,-4.06347 14.6953,-6.43675 4.86221,-2.37327 9.67883,-4.973 14.42171,-7.79538 4.74288,-2.82238 9.41203,-5.86742 13.9793,-9.13135 4.56726,-3.26391 9.03265,-6.74671 13.36801,-10.44461 4.33538,-3.69788 8.54072,-7.61089 12.58787,-11.7352 4.0472,-4.12432 7.9363,-8.45996 11.639,-13.00314 3.7027,-4.54319 7.2191,-9.29392 10.5211,-14.24839 3.302,-4.95448 6.3895,-10.11274 9.2345,-15.47097 2.845,-5.35823 5.4473,-10.91645 7.779,-16.67086 2.3316,-5.75443 4.3926,-11.70504 6.1546,-17.8481 1.7621,-6.14304 3.2253,-12.47851 4.3615,-19.00263 1.1361,-6.52412 1.9453,-13.23689 2.3994,-20.13452 0.454,-6.89763 0.5738,-13.97771 0.2685,-21.24372 -0.6594,-15.6909 -54.1962,-14.64521 -58.83911,-28.72838 z"
                 id="use3851"
                 inkscape:connector-curvature="0"
                 sodipodi:nodetypes="sssssssssssssssscssssssssssssssss"
                 inkscape:transform-center-y="-226.0625" />
            </g>
            <path
               sodipodi:type="star"
               style="fill:url(#radialGradient4301);fill-opacity:1;fill-rule:evenodd;stroke:none"
               id="path3888"
               sodipodi:sides="5"
               sodipodi:cx="-1004"
               sodipodi:cy="212.36218"
               sodipodi:r1="136.05881"
               sodipodi:r2="45.765678"
               sodipodi:arg1="1.5707963"
               sodipodi:arg2="2.1991148"
               inkscape:flatsided="false"
               inkscape:rounded="0"
               inkscape:randomized="0"
               d="m -1004,348.42099 -26.9004,-99.03359 -102.4992,5.01927 85.8739,-56.18686 -36.4477,-95.93151 79.9734,64.3082 79.97336,-64.30821 -36.44761,95.93152 85.87387,56.18685 -102.49923,-5.01927 z"
               inkscape:transform-center-y="15.974348"
               transform="matrix(1.2295098,0,0,1.2295098,1845.7952,450.46716)"
               inkscape:transform-center-x="-7.6397589e-005" />
          </g>
          <path
             transform="matrix(0.22218254,0,0,0.22218254,685.48125,560.9863)"
             d="m -101.82337,530.5174 c 0,35.14718 -28.49243,63.63961 -63.63961,63.63961 -35.14719,0 -63.63961,-28.49243 -63.63961,-63.63961 0,-35.14719 28.49242,-63.63962 63.63961,-63.63962 35.14718,0 63.63961,28.49243 63.63961,63.63962 z"
             sodipodi:ry="63.63961"
             sodipodi:rx="63.63961"
             sodipodi:cy="530.5174"
             sodipodi:cx="-165.46298"
             id="path3918"
             style="fill:#ffe000;fill-opacity:0.421875;fill-rule:evenodd;stroke:none"
             sodipodi:type="arc" />
          <path
             sodipodi:type="arc"
             style="fill:#ffe000;fill-opacity:0.421875;fill-rule:evenodd;stroke:none"
             id="path3922"
             sodipodi:cx="-165.46298"
             sodipodi:cy="530.5174"
             sodipodi:rx="63.63961"
             sodipodi:ry="63.63961"
             d="m -101.82337,530.5174 c 0,35.14718 -28.49243,63.63961 -63.63961,63.63961 -35.14719,0 -63.63961,-28.49243 -63.63961,-63.63961 0,-35.14719 28.49242,-63.63962 63.63961,-63.63962 35.14718,0 63.63961,28.49243 63.63961,63.63962 z"
             transform="matrix(0.22218254,0,0,0.22218254,703.42742,622.35889)" />
          <path
             transform="matrix(0.22218254,0,0,0.22218254,640.71169,609.5599)"
             d="m -101.82337,530.5174 c 0,35.14718 -28.49243,63.63961 -63.63961,63.63961 -35.14719,0 -63.63961,-28.49243 -63.63961,-63.63961 0,-35.14719 28.49242,-63.63962 63.63961,-63.63962 35.14718,0 63.63961,28.49243 63.63961,63.63962 z"
             sodipodi:ry="63.63961"
             sodipodi:rx="63.63961"
             sodipodi:cy="530.5174"
             sodipodi:cx="-165.46298"
             id="path3924"
             style="fill:#ffe000;fill-opacity:0.421875;fill-rule:evenodd;stroke:none"
             sodipodi:type="arc" />
          <path
             sodipodi:type="arc"
             style="fill:#ffe000;fill-opacity:0.421875;fill-rule:evenodd;stroke:none"
             id="path3926"
             sodipodi:cx="-165.46298"
             sodipodi:cy="530.5174"
             sodipodi:rx="63.63961"
             sodipodi:ry="63.63961"
             d="m -101.82337,530.5174 c 0,35.14718 -28.49243,63.63961 -63.63961,63.63961 -35.14719,0 -63.63961,-28.49243 -63.63961,-63.63961 0,-35.14719 28.49242,-63.63962 63.63961,-63.63962 35.14718,0 63.63961,28.49243 63.63961,63.63962 z"
             transform="matrix(0.22218254,0,0,0.22218254,645.42742,667.35889)" />
          <path
             transform="matrix(0.22218254,0,0,0.22218254,619.45686,539.73147)"
             d="m -101.82337,530.5174 c 0,35.14718 -28.49243,63.63961 -63.63961,63.63961 -35.14719,0 -63.63961,-28.49243 -63.63961,-63.63961 0,-35.14719 28.49242,-63.63962 63.63961,-63.63962 35.14718,0 63.63961,28.49243 63.63961,63.63962 z"
             sodipodi:ry="63.63961"
             sodipodi:rx="63.63961"
             sodipodi:cy="530.5174"
             sodipodi:cx="-165.46298"
             id="path3930"
             style="fill:#ffe000;fill-opacity:0.421875;fill-rule:evenodd;stroke:none"
             sodipodi:type="arc" />
          <path
             sodipodi:type="arc"
             style="fill:#ffe000;fill-opacity:0.421875;fill-rule:evenodd;stroke:none"
             id="path3934"
             sodipodi:cx="-165.46298"
             sodipodi:cy="530.5174"
             sodipodi:rx="63.63961"
             sodipodi:ry="63.63961"
             d="m -101.82337,530.5174 c 0,35.14718 -28.49243,63.63961 -63.63961,63.63961 -35.14719,0 -63.63961,-28.49243 -63.63961,-63.63961 0,-35.14719 28.49242,-63.63962 63.63961,-63.63962 35.14718,0 63.63961,28.49243 63.63961,63.63962 z"
             transform="matrix(0.22218254,0,0,0.22218254,585.11371,608.12844)" />
        </g>
      </g>
    </g>
  </g>
</svg>
